<svg xmlns="http://www.w3.org/2000/svg" fill="none" viewBox="-0.5 -0.5 14 14" height="14" width="14"><g id="bell-notification--alert-bell-ring-notification-alarm"><path id="Ellipse 85" stroke="#4959a6" stroke-linecap="round" stroke-linejoin="round" d="M5.2715 11.568142857142858a1.3928571428571428 1.3928571428571428 0 0 0 2.457 0" stroke-width="1"></path><path id="Vector" stroke="#4959a6" stroke-linecap="round" stroke-linejoin="round" d="M3.9575714285714283 1.7494285714285713a3.5954285714285716 3.5954285714285716 0 0 1 6.137857142857143 2.5424285714285717c0 0.5608571428571428 0.09285714285714286 1.087357142857143 0.23214285714285715 1.626857142857143 0.038071428571428576 0.12257142857142858 0.08171428571428571 0.23771428571428574 0.12721428571428572 0.34635714285714286 0.21542857142857144 0.5060714285714286 0.8087857142857143 0.6797142857142857 1.2517142857142858 1.0065714285714287 0.6602142857142858 0.4893571428571429 0.533 1.5358571428571428 -0.016714285714285713 1.9425714285714286 0 0 -0.8877142857142857 0.7679285714285714 -5.189785714285715 0.7679285714285714 -4.303000000000001 0 -5.189785714285715 -0.7679285714285714 -5.189785714285715 -0.7679285714285714 -0.5497142857142857 -0.40671428571428575 -0.6778571428571428 -1.4532142857142858 -0.016714285714285713 -1.9425714285714286 0.44292857142857145 -0.32685714285714285 1.0362857142857145 -0.5005000000000001 1.2517142857142858 -1.0065714285714287 0.21450000000000002 -0.5051428571428572 0.3593571428571429 -1.1514285714285715 0.3593571428571429 -1.9732142857142858 0 -0.9536428571428571 0.37885714285714284 -1.8682857142857143 1.053 -2.5424285714285717Z" stroke-width="1"></path></g></svg>